<?xml version="1.0" encoding="utf-8"?>
<!-- Generator: Adobe Illustrator 24.1.0, SVG Export Plug-In . SVG Version: 6.00 Build 0)  -->
<svg version="1.1" id="Layer_1" xmlns="http://www.w3.org/2000/svg" xmlns:xlink="http://www.w3.org/1999/xlink" x="0px" y="0px"
	 viewBox="0 0 800 106" style="enable-background:new 0 0 800 106;" xml:space="preserve">
<style type="text/css">
	.st0{fill:none;}
	.st1{fill:#FFFFFF;}
	.st2{fill:#233247;}
	.st3{fill:#1FA6AA;}
	.st4{opacity:0.4;}
	.st5{fill:#332E20;}
	.st6{fill:#F2F2F1;}
	.st7{fill:#C93755;}
	.st8{fill:#FFFFFF;stroke:#233247;stroke-width:0.75;stroke-miterlimit:10;}
	.st9{fill:#1FA6AA;stroke:#1FA6AA;stroke-width:0.75;stroke-miterlimit:10;}
	.st10{fill:#233247;stroke:#233247;stroke-width:0.75;stroke-miterlimit:10;}
</style>
<g>
	<g>
		<polygon class="st1" points="742.8,104.8 699,1.4 695.4,1.4 739.2,104.8 		"/>
	</g>
	<g>
		<g>
			<path class="st1" d="M479.2,66.3c2.6-1.5,5-3.2,7.1-5.3c2.1-2.1,3.9-4.4,5.3-7.1c1.5-2.6,2.6-5.4,3.3-8.4c0.8-3,1.2-6,1.2-9.2
				c0-4.3-0.9-8.5-2.5-12.7c-1.7-4.2-4.1-7.9-7.1-11.2c-3-3.3-6.6-6-10.7-8c-4.1-2-8.6-3.1-13.5-3.1h-46.6v21h23.9h21.1
				c2.7,0,5.2,1.3,7.6,3.8c2.3,2.5,3.5,5.9,3.5,10.2c0,4.2-1,7.6-3.1,10.3c-2,2.7-4.5,4-7.3,4h-21.8v-22h-23.9v76.1h23.9V71.4h15.6
				l19.8,33.3H502L479.2,66.3z"/>
		</g>
		<g>
			<g>
				<polygon class="st1" points="56,22.4 87.4,22.4 87.4,1.4 0.5,1.4 0.5,22.4 32.1,22.4 				"/>
			</g>
			<g>
				<rect x="32.1" y="28.6" class="st1" width="23.9" height="76.1"/>
			</g>
		</g>
		<path class="st1" d="M143.4,84.4c4.1,0,7.5-0.8,10.3-2.5c2.8-1.7,5.1-4,6.8-6.8c1.7-2.8,3-6,3.7-9.7c0.7-3.6,1.1-7.4,1.1-11.1V1.4
			h23.9v52.8c0,7.2-0.9,13.9-2.7,20.1c-1.8,6.2-4.6,11.6-8.3,16.3c-3.7,4.7-8.5,8.3-14.3,11c-5.8,2.7-12.6,4-20.6,4
			c-8.2,0-15.3-1.4-21.1-4.2c-5.8-2.8-10.6-6.6-14.2-11.3c-3.6-4.7-6.3-10.2-8-16.4c-1.7-6.2-2.5-12.7-2.5-19.5V1.4h23.9v52.8
			c0,4,0.4,7.8,1.2,11.4c0.8,3.6,2,6.8,3.8,9.6c1.7,2.8,4,5,6.8,6.7C135.9,83.6,139.4,84.4,143.4,84.4z"/>
		<path class="st1" d="M329.2,45.7v59.1h-23.9V1.4h18.6l48.2,60.7V1.4H396v103.3h-19.2L329.2,45.7z"/>
		<path class="st1" d="M516.9,104.8V1.4h34.4c8.2,0,15.3,1.4,21.5,4.1c6.2,2.7,11.3,6.4,15.4,11.1c4.1,4.7,7.1,10.1,9.2,16.4
			c2,6.3,3.1,12.9,3.1,20c0,7.9-1.1,15-3.4,21.3c-2.3,6.4-5.6,11.8-9.8,16.3c-4.3,4.5-9.4,8-15.5,10.5c-6.1,2.5-12.8,3.7-20.3,3.7
			H516.9z M592.9,53c0-6.5-0.9-12.5-2.8-18c-1.8-5.5-4.5-10.2-8.1-14.2c-3.5-4-7.9-7.1-13-9.3c-5.1-2.2-11.1-3.3-17.8-3.3h-26.9v90
			h26.9c6.8,0,12.8-1.1,18-3.4c5.2-2.3,9.5-5.5,13-9.5c3.5-4.1,6.1-8.9,7.9-14.3C592,65.3,592.9,59.4,592.9,53z"/>
		<path class="st1" d="M689.6,98.1v6.7h-68.8V1.4h67.5v6.7h-60.1v40.6h52.5v6.4h-52.5v42.9H689.6z"/>
		<path class="st1" d="M713,1.4l39.3,94l39.3-94h7.9l-43.7,103.3H749L705.2,1.4H713z"/>
		<path class="st1" d="M271.2,66.3c2.6-1.5,5-3.2,7.1-5.3c2.1-2.1,3.9-4.4,5.3-7.1c1.5-2.6,2.6-5.4,3.3-8.4c0.8-3,1.2-6,1.2-9.2
			c0-4.3-0.9-8.5-2.5-12.7c-1.7-4.2-4.1-7.9-7.1-11.2c-3-3.3-6.6-6-10.7-8c-4.1-2-8.6-3.1-13.5-3.1h-46.6v21h23.9v0h21.1
			c2.7,0,5.2,1.3,7.6,3.8c2.3,2.5,3.5,5.9,3.5,10.2c0,4.2-1,7.6-3.1,10.3c-2,2.7-4.5,4-7.3,4h-21.8v-22h-23.9v76.2h23.9V71.4h15.6
			l19.8,33.3h26.9L271.2,66.3z"/>
		<g>
			<path class="st1" d="M689.6,98v6.7h-68.9V1.3h67.5V8h-60.1v40.6h52.5v6.4h-52.5V98H689.6z"/>
		</g>
	</g>
</g>
</svg>
